<?xml version="1.0" encoding="UTF-8"?>
<svg xmlns="http://www.w3.org/2000/svg" viewBox="0 0 1200 675" role="img" aria-hidden="true">
  <defs>
    <linearGradient id="bg" x1="0%" y1="0%" x2="100%" y2="100%">
      <stop offset="0%" stop-color="#0a0d14"/>
      <stop offset="100%" stop-color="#111827"/>
    </linearGradient>
    <linearGradient id="brand" x1="0%" y1="0%" x2="100%" y2="0%">
      <stop offset="0%" stop-color="#2563eb"/>
      <stop offset="100%" stop-color="#10b981"/>
    </linearGradient>
    <pattern id="grid" width="48" height="48" patternUnits="userSpaceOnUse">
      <path d="M48 0H0V48" fill="none" stroke="rgba(255,255,255,0.04)" stroke-width="1"/>
    </pattern>
    <filter id="glow" x="-50%" y="-50%" width="200%" height="200%">
      <feGaussianBlur stdDeviation="12" result="b"/>
      <feMerge><feMergeNode in="b"/><feMergeNode in="SourceGraphic"/></feMerge>
    </filter>
  </defs>
  <rect width="1200" height="675" fill="url(#bg)"/>
  <rect width="1200" height="675" fill="url(#grid)"/>
  <ellipse cx="200" cy="120" rx="180" ry="120" fill="#2563eb" opacity="0.12"/>
  <ellipse cx="1000" cy="560" rx="220" ry="140" fill="#10b981" opacity="0.1"/>
  
  <g filter="url(#glow)">
    <rect x="380" y="150" width="440" height="380" rx="16" fill="rgba(255,255,255,0.04)" stroke="url(#brand)" stroke-width="2"/>
    <text x="420" y="210" fill="#f59e0b" font-size="28" font-weight="700">ADR</text>
    <text x="420" y="270" fill="#94a3b8" font-size="16">Context</text>
    <line x1="420" y1="290" x2="760" y2="290" stroke="rgba(255,255,255,0.15)" stroke-width="2"/>
    <text x="420" y="340" fill="#94a3b8" font-size="16">Decision</text>
    <line x1="420" y1="360" x2="760" y2="360" stroke="rgba(255,255,255,0.15)" stroke-width="2"/>
    <text x="420" y="410" fill="#94a3b8" font-size="16">Consequences</text>
    <line x1="420" y1="430" x2="720" y2="430" stroke="rgba(255,255,255,0.15)" stroke-width="2"/>
    <circle cx="760" cy="470" r="28" fill="rgba(16,185,129,0.3)" stroke="#10b981" stroke-width="2"/>
    <path d="M748 470 L756 478 L774 458" stroke="#34d399" stroke-width="3" fill="none"/>
  </g>
  <text x="48" y="628" fill="rgba(255,255,255,0.35)" font-family="ui-sans-serif,system-ui,sans-serif" font-size="14" font-weight="600" letter-spacing="0.2em">SAIFCORE</text>
</svg>