<?xml version="1.0" encoding="UTF-8"?>
<svg xmlns="http://www.w3.org/2000/svg" viewBox="0 0 1200 675" role="img" aria-hidden="true">
  <defs>
    <linearGradient id="bg" x1="0%" y1="0%" x2="100%" y2="100%">
      <stop offset="0%" stop-color="#0a0d14"/>
      <stop offset="100%" stop-color="#111827"/>
    </linearGradient>
    <linearGradient id="brand" x1="0%" y1="0%" x2="100%" y2="0%">
      <stop offset="0%" stop-color="#2563eb"/>
      <stop offset="100%" stop-color="#10b981"/>
    </linearGradient>
    <pattern id="grid" width="48" height="48" patternUnits="userSpaceOnUse">
      <path d="M48 0H0V48" fill="none" stroke="rgba(255,255,255,0.04)" stroke-width="1"/>
    </pattern>
    <filter id="glow" x="-50%" y="-50%" width="200%" height="200%">
      <feGaussianBlur stdDeviation="12" result="b"/>
      <feMerge><feMergeNode in="b"/><feMergeNode in="SourceGraphic"/></feMerge>
    </filter>
  </defs>
  <rect width="1200" height="675" fill="url(#bg)"/>
  <rect width="1200" height="675" fill="url(#grid)"/>
  <ellipse cx="200" cy="120" rx="180" ry="120" fill="#2563eb" opacity="0.12"/>
  <ellipse cx="1000" cy="560" rx="220" ry="140" fill="#10b981" opacity="0.1"/>
  
  <g filter="url(#glow)">
    <rect x="280" y="200" width="100" height="100" rx="12" fill="#2563eb" opacity="0.7"/>
    <rect x="400" y="200" width="100" height="100" rx="12" fill="#3b82f6" opacity="0.7"/>
    <rect x="520" y="200" width="100" height="100" rx="12" fill="#10b981" opacity="0.7"/>
    <rect x="640" y="200" width="100" height="100" rx="12" fill="#34d399" opacity="0.7"/>
    <rect x="760" y="200" width="100" height="100" rx="12" fill="#6366f1" opacity="0.7"/>
    <rect x="340" y="340" width="520" height="120" rx="16" fill="none" stroke="url(#brand)" stroke-width="2" stroke-dasharray="8 6"/>
    <text x="600" y="410" text-anchor="middle" fill="#94a3b8" font-size="16">SEMANTIC TOKENS → PRODUCT LAYER</text>
  </g>
  <text x="48" y="628" fill="rgba(255,255,255,0.35)" font-family="ui-sans-serif,system-ui,sans-serif" font-size="14" font-weight="600" letter-spacing="0.2em">SAIFCORE</text>
</svg>