<?xml version="1.0" encoding="UTF-8"?>
<svg xmlns="http://www.w3.org/2000/svg" viewBox="0 0 1200 675" role="img" aria-hidden="true">
  <defs>
    <linearGradient id="bg" x1="0%" y1="0%" x2="100%" y2="100%">
      <stop offset="0%" stop-color="#0a0d14"/>
      <stop offset="100%" stop-color="#111827"/>
    </linearGradient>
    <linearGradient id="brand" x1="0%" y1="0%" x2="100%" y2="0%">
      <stop offset="0%" stop-color="#2563eb"/>
      <stop offset="100%" stop-color="#10b981"/>
    </linearGradient>
    <pattern id="grid" width="48" height="48" patternUnits="userSpaceOnUse">
      <path d="M48 0H0V48" fill="none" stroke="rgba(255,255,255,0.04)" stroke-width="1"/>
    </pattern>
    <filter id="glow" x="-50%" y="-50%" width="200%" height="200%">
      <feGaussianBlur stdDeviation="12" result="b"/>
      <feMerge><feMergeNode in="b"/><feMergeNode in="SourceGraphic"/></feMerge>
    </filter>
  </defs>
  <rect width="1200" height="675" fill="url(#bg)"/>
  <rect width="1200" height="675" fill="url(#grid)"/>
  <ellipse cx="200" cy="120" rx="180" ry="120" fill="#2563eb" opacity="0.12"/>
  <ellipse cx="1000" cy="560" rx="220" ry="140" fill="#10b981" opacity="0.1"/>
  
  <g filter="url(#glow)">
    <circle cx="420" cy="280" r="36" fill="rgba(37,99,235,0.2)" stroke="#2563eb" stroke-width="2"/>
    <text x="420" y="286" text-anchor="middle" fill="#93c5fd" font-size="11">LEDGER</text>
    <circle cx="600" cy="240" r="44" fill="rgba(244,63,94,0.15)" stroke="#f43f5e" stroke-width="2"/>
    <text x="600" y="246" text-anchor="middle" fill="#fda4af" font-size="12" font-weight="700">YOU</text>
    <circle cx="780" cy="280" r="36" fill="rgba(16,185,129,0.2)" stroke="#10b981" stroke-width="2"/>
    <text x="780" y="286" text-anchor="middle" fill="#6ee7b7" font-size="11">CALLBACK</text>
    <path d="M456 280 H564 M636 280 H744" stroke="rgba(255,255,255,0.2)" stroke-width="2" stroke-dasharray="6 4"/>
    <rect x="480" y="380" width="240" height="80" rx="10" fill="rgba(245,158,11,0.15)" stroke="#f59e0b" stroke-width="1"/>
    <text x="600" y="418" text-anchor="middle" fill="#fcd34d" font-size="13">TICKET · 02:14</text>
    <text x="600" y="520" text-anchor="middle" fill="#94a3b8" font-size="14">ONE THREAD · THREE AUDIENCES</text>
  </g>
  <text x="48" y="628" fill="rgba(255,255,255,0.35)" font-family="ui-sans-serif,system-ui,sans-serif" font-size="14" font-weight="600" letter-spacing="0.2em">SAIFCORE</text>
</svg>