<?xml version="1.0" encoding="UTF-8"?>
<svg xmlns="http://www.w3.org/2000/svg" viewBox="0 0 1200 675" role="img" aria-hidden="true">
  <defs>
    <linearGradient id="bg" x1="0%" y1="0%" x2="100%" y2="100%">
      <stop offset="0%" stop-color="#0a0d14"/>
      <stop offset="100%" stop-color="#111827"/>
    </linearGradient>
    <linearGradient id="brand" x1="0%" y1="0%" x2="100%" y2="0%">
      <stop offset="0%" stop-color="#2563eb"/>
      <stop offset="100%" stop-color="#10b981"/>
    </linearGradient>
    <pattern id="grid" width="48" height="48" patternUnits="userSpaceOnUse">
      <path d="M48 0H0V48" fill="none" stroke="rgba(255,255,255,0.04)" stroke-width="1"/>
    </pattern>
    <filter id="glow" x="-50%" y="-50%" width="200%" height="200%">
      <feGaussianBlur stdDeviation="12" result="b"/>
      <feMerge><feMergeNode in="b"/><feMergeNode in="SourceGraphic"/></feMerge>
    </filter>
  </defs>
  <rect width="1200" height="675" fill="url(#bg)"/>
  <rect width="1200" height="675" fill="url(#grid)"/>
  <ellipse cx="200" cy="120" rx="180" ry="120" fill="#2563eb" opacity="0.12"/>
  <ellipse cx="1000" cy="560" rx="220" ry="140" fill="#10b981" opacity="0.1"/>
  
  <g filter="url(#glow)">
    <rect x="280" y="200" width="280" height="280" rx="16" fill="rgba(37,99,235,0.18)" stroke="#2563eb" stroke-width="2"/>
    <line x1="280" y1="295" x2="560" y2="295" stroke="rgba(255,255,255,0.12)" stroke-width="2"/>
    <line x1="280" y1="380" x2="560" y2="380" stroke="rgba(255,255,255,0.12)" stroke-width="2"/>
    <text x="420" y="260" text-anchor="middle" fill="#93c5fd" font-size="16" font-weight="700">AUTH</text>
    <text x="420" y="345" text-anchor="middle" fill="#93c5fd" font-size="16" font-weight="700">PAYMENTS</text>
    <text x="420" y="430" text-anchor="middle" fill="#93c5fd" font-size="16" font-weight="700">NOTIFY</text>
    <text x="420" y="520" text-anchor="middle" fill="#34d399" font-size="14">MODULAR MONOLITH</text>
    <g opacity="0.45">
      <rect x="700" y="210" width="100" height="60" rx="8" fill="none" stroke="#64748b" stroke-width="1.5" stroke-dasharray="4 4"/>
      <rect x="840" y="210" width="100" height="60" rx="8" fill="none" stroke="#64748b" stroke-width="1.5" stroke-dasharray="4 4"/>
      <rect x="700" y="300" width="100" height="60" rx="8" fill="none" stroke="#64748b" stroke-width="1.5" stroke-dasharray="4 4"/>
      <rect x="840" y="300" width="100" height="60" rx="8" fill="none" stroke="#64748b" stroke-width="1.5" stroke-dasharray="4 4"/>
      <rect x="770" y="390" width="100" height="60" rx="8" fill="none" stroke="#64748b" stroke-width="1.5" stroke-dasharray="4 4"/>
      <text x="820" y="500" text-anchor="middle" fill="#64748b" font-size="13">12 SERVICES · 2 OPS</text>
    </g>
  </g>
  <text x="48" y="628" fill="rgba(255,255,255,0.35)" font-family="ui-sans-serif,system-ui,sans-serif" font-size="14" font-weight="600" letter-spacing="0.2em">SAIFCORE</text>
</svg>