<?xml version="1.0" encoding="UTF-8"?>
<svg xmlns="http://www.w3.org/2000/svg" viewBox="0 0 1200 675" role="img" aria-hidden="true">
  <defs>
    <linearGradient id="bg" x1="0%" y1="0%" x2="100%" y2="100%">
      <stop offset="0%" stop-color="#0a0d14"/>
      <stop offset="100%" stop-color="#111827"/>
    </linearGradient>
    <linearGradient id="brand" x1="0%" y1="0%" x2="100%" y2="0%">
      <stop offset="0%" stop-color="#2563eb"/>
      <stop offset="100%" stop-color="#10b981"/>
    </linearGradient>
    <pattern id="grid" width="48" height="48" patternUnits="userSpaceOnUse">
      <path d="M48 0H0V48" fill="none" stroke="rgba(255,255,255,0.04)" stroke-width="1"/>
    </pattern>
    <filter id="glow" x="-50%" y="-50%" width="200%" height="200%">
      <feGaussianBlur stdDeviation="12" result="b"/>
      <feMerge><feMergeNode in="b"/><feMergeNode in="SourceGraphic"/></feMerge>
    </filter>
  </defs>
  <rect width="1200" height="675" fill="url(#bg)"/>
  <rect width="1200" height="675" fill="url(#grid)"/>
  <ellipse cx="200" cy="120" rx="180" ry="120" fill="#2563eb" opacity="0.12"/>
  <ellipse cx="1000" cy="560" rx="220" ry="140" fill="#10b981" opacity="0.1"/>
  
  <g filter="url(#glow)">
    <path d="M520 160 C580 140 640 150 700 180 C760 210 800 260 820 320 C840 380 820 440 760 480 C700 520 620 530 540 510 C460 490 400 450 380 390 C360 330 380 270 440 220 C480 190 500 170 520 160 Z" fill="rgba(16,185,129,0.12)" stroke="url(#brand)" stroke-width="2"/>
    <rect x="480" y="360" width="90" height="150" rx="14" fill="rgba(37,99,235,0.25)" stroke="#2563eb" stroke-width="2"/>
    <rect x="630" y="360" width="90" height="150" rx="14" fill="rgba(37,99,235,0.25)" stroke="#2563eb" stroke-width="2"/>
    <circle cx="525" cy="400" r="18" fill="#10b981" opacity="0.8"/>
    <circle cx="675" cy="400" r="18" fill="#f59e0b" opacity="0.8"/>
    <text x="600" y="560" text-anchor="middle" fill="#94a3b8" font-size="15">MOBILE MONEY · TRUST · DISTRIBUTION</text>
  </g>
  <text x="48" y="628" fill="rgba(255,255,255,0.35)" font-family="ui-sans-serif,system-ui,sans-serif" font-size="14" font-weight="600" letter-spacing="0.2em">SAIFCORE</text>
</svg>